ffmpeg version 6.1.1-3ubuntu5 Copyright (c) 2000-2023 the FFmpeg developers
  built with gcc 13 (Ubuntu 13.2.0-23ubuntu3)
  configuration: --prefix=/usr --extra-version=3ubuntu5 --toolchain=hardened --libdir=/usr/lib/x86_64-linux-gnu --incdir=/usr/include/x86_64-linux-gnu --arch=amd64 --enable-gpl --disable-stripping --disable-omx --enable-gnutls --enable-libaom --enable-libass --enable-libbs2b --enable-libcaca --enable-libcdio --enable-libcodec2 --enable-libdav1d --enable-libflite --enable-libfontconfig --enable-libfreetype --enable-libfribidi --enable-libglslang --enable-libgme --enable-libgsm --enable-libharfbuzz --enable-libmp3lame --enable-libmysofa --enable-libopenjpeg --enable-libopenmpt --enable-libopus --enable-librubberband --enable-libshine --enable-libsnappy --enable-libsoxr --enable-libspeex --enable-libtheora --enable-libtwolame --enable-libvidstab --enable-libvorbis --enable-libvpx --enable-libwebp --enable-libx265 --enable-libxml2 --enable-libxvid --enable-libzimg --enable-openal --enable-opencl --enable-opengl --disable-sndio --enable-libvpl --disable-libmfx --enable-libdc1394 --enable-libdrm --enable-libiec61883 --enable-chromaprint --enable-frei0r --enable-ladspa --enable-libbluray --enable-libjack --enable-libpulse --enable-librabbitmq --enable-librist --enable-libsrt --enable-libssh --enable-libsvtav1 --enable-libx264 --enable-libzmq --enable-libzvbi --enable-lv2 --enable-sdl2 --enable-libplacebo --enable-librav1e --enable-pocketsphinx --enable-librsvg --enable-libjxl --enable-shared
  libavutil      58. 29.100 / 58. 29.100
  libavcodec     60. 31.102 / 60. 31.102
  libavformat    60. 16.100 / 60. 16.100
  libavdevice    60.  3.100 / 60.  3.100
  libavfilter     9. 12.100 /  9. 12.100
  libswscale      7.  5.100 /  7.  5.100
  libswresample   4. 12.100 /  4. 12.100
  libpostproc    57.  3.100 / 57.  3.100
Input #0, mov,mp4,m4a,3gp,3g2,mj2, from 'input.mp4':
  Metadata:
    major_brand     : mp42
    minor_version   : 0
    compatible_brands: isommp42
    creation_time   : 2025-10-03T20:56:56.000000Z
    location        : +35.6956+050.9850/
    location-eng    : +35.6956+050.9850/
    com.android.version: 11
    com.xiaomi.record_mimovie: 1
  Duration: 00:00:04.91, start: 0.000000, bitrate: 14029 kb/s
  Stream #0:0[0x1](eng): Video: h264 (High) (avc1 / 0x31637661), yuvj420p(pc, bt709/bt709/smpte170m, progressive), 1280x720, 13262 kb/s, 29.43 fps, 30 tbr, 90k tbn (default)
    Metadata:
      creation_time   : 2025-10-03T20:56:56.000000Z
      handler_name    : VideoHandle
      vendor_id       : [0][0][0][0]
  Stream #0:1[0x2](eng): Audio: aac (LC) (mp4a / 0x6134706D), 48000 Hz, mono, fltp, 192 kb/s (default)
    Metadata:
      creation_time   : 2025-10-03T20:56:56.000000Z
      handler_name    : SoundHandle
      vendor_id       : [0][0][0][0]
Stream mapping:
  Stream #0:0 -> #0:0 (h264 (native) -> gif (native))
Press [q] to stop, [?] for help
[swscaler @ 0x5572a5cc6180] deprecated pixel format used, make sure you did set range correctly
    Last message repeated 3 times
[Parsed_palettegen_3 @ 0x5572a5c3e8c0] The input frame is not in sRGB, colors may be off
    Last message repeated 47 times
[Parsed_palettegen_3 @ 0x5572a5c3e8c0] 255(+1) colors generated out of 242189 colors; ratio=0.001053
Output #0, gif, to 'output.gif':
  Metadata:
    major_brand     : mp42
    minor_version   : 0
    compatible_brands: isommp42
    com.xiaomi.record_mimovie: 1
    location        : +35.6956+050.9850/
    location-eng    : +35.6956+050.9850/
    com.android.version: 11
    encoder         : Lavf60.16.100
  Stream #0:0(eng): Video: gif, pal8(pc, gbr/bt709/smpte170m, progressive), 480x270, q=2-31, 200 kb/s, 10 fps, 100 tbn (default)
    Metadata:
      creation_time   : 2025-10-03T20:56:56.000000Z
      handler_name    : VideoHandle
      vendor_id       : [0][0][0][0]
      encoder         : Lavc60.31.102 gif
frame=    0 fps=0.0 q=-0.0 size=       0kB time=00:00:00.10 bitrate=   0.0kbits/s speed=0.166x    frame=   47 fps= 42 q=-0.0 size=    2304kB time=00:00:04.80 bitrate=3932.2kbits/s speed=4.32x    [out#0/gif @ 0x5572a5bd9440] video:2595kB audio:0kB subtitle:0kB other streams:0kB global headers:0kB muxing overhead: 0.000753%
frame=   48 fps= 43 q=-0.0 Lsize=    2595kB time=00:00:04.80 bitrate=4429.0kbits/s speed=4.32x    
